# xmcd
#
# Track frame offsets:
#	150
#	8491
#	17615
#	36816
#	48689
#	63333
#	76011
#	87355
#	99495
#	111045
#	130393
#	139686
#
# Disc length: 2025 seconds
#
# Revision: 1
# Processed by: cddbd v1.5.2PL0 Copyright (c) Steve Scherf et al.
# Submitted via: audiograbber 1.83.01
#
DISCID=8e07e70c
DTITLE=Вячеслав Орел - Экспресс желаний
DYEAR=2006
DGENRE=Vocal
TTITLE0=Весна в стиле шансон
TTITLE1=Не правда ли нам с Вами хорошо...?
TTITLE2=Вот такое кино
TTITLE3=По пустой аллее
TTITLE4=Женщина жар-птица
TTITLE5=Ловец жемчуга
TTITLE6=Не оставляй, ездок, коня
TTITLE7=Экспресс желаний
TTITLE8=Ошибка
TTITLE9=Осенний мотив
TTITLE10=Сверхновая
TTITLE11=Полетай пока
EXTD=
EXTT0=
EXTT1=
EXTT2=
EXTT3=
EXTT4=
EXTT5=
EXTT6=
EXTT7=
EXTT8=
EXTT9=
EXTT10=
EXTT11=
PLAYORDER=
